<?xml version="1.0" encoding="UTF-8" standalone="no"?>
<!DOCTYPE svg PUBLIC "-//W3C//DTD SVG 1.1//EN"
 "http://www.w3.org/Graphics/SVG/1.1/DTD/svg11.dtd">
<!-- Generated by graphviz version 11.0.0 (20240519.1550)
 -->
<!-- Title: snakemake_dag Pages: 1 -->
<svg width="778pt" height="990pt"
 viewBox="0.00 0.00 778.30 990.25" xmlns="http://www.w3.org/2000/svg" xmlns:xlink="http://www.w3.org/1999/xlink">
<g id="graph0" class="graph" transform="scale(1 1) rotate(0) translate(4 986.25)">
<title>snakemake_dag</title>
<polygon fill="white" stroke="none" points="-4,4 -4,-986.25 774.3,-986.25 774.3,4 -4,4"/>
<!-- 0 -->
<g id="node1" class="node">
<title>0</title>
<path fill="none" stroke="#c6d856" stroke-width="2" d="M202.55,-36C202.55,-36 140.8,-36 140.8,-36 134.8,-36 128.8,-30 128.8,-24 128.8,-24 128.8,-12 128.8,-12 128.8,-6 134.8,0 140.8,0 140.8,0 202.55,0 202.55,0 208.55,0 214.55,-6 214.55,-12 214.55,-12 214.55,-24 214.55,-24 214.55,-30 208.55,-36 202.55,-36"/>
<text text-anchor="middle" x="171.67" y="-14.88" font-family="sans" font-size="10.00">bam_to_mhap</text>
</g>
<!-- 1 -->
<g id="node2" class="node">
<title>1</title>
<path fill="none" stroke="#56d8c9" stroke-width="2" d="M284.67,-180C284.67,-180 254.67,-180 254.67,-180 248.67,-180 242.67,-174 242.67,-168 242.67,-168 242.67,-156 242.67,-156 242.67,-150 248.67,-144 254.67,-144 254.67,-144 284.67,-144 284.67,-144 290.67,-144 296.67,-150 296.67,-156 296.67,-156 296.67,-168 296.67,-168 296.67,-174 290.67,-180 284.67,-180"/>
<text text-anchor="middle" x="269.67" y="-158.88" font-family="sans" font-size="10.00">dedup</text>
</g>
<!-- 1&#45;&gt;0 -->
<g id="edge1" class="edge">
<title>1&#45;&gt;0</title>
<path fill="none" stroke="grey" stroke-width="2" d="M241.87,-159.64C180.78,-156.01 37.94,-143.8 8.67,-108 -25.64,-66.02 55.46,-40.79 115.15,-28.42"/>
<polygon fill="grey" stroke="grey" stroke-width="2" points="115.79,-31.86 124.92,-26.49 114.44,-24.99 115.79,-31.86"/>
</g>
<!-- 15 -->
<g id="node16" class="node">
<title>15</title>
<path fill="none" stroke="#59d856" stroke-width="2" d="M509.42,-108C509.42,-108 29.92,-108 29.92,-108 23.92,-108 17.92,-102 17.92,-96 17.92,-96 17.92,-84 17.92,-84 17.92,-78 23.92,-72 29.92,-72 29.92,-72 509.42,-72 509.42,-72 515.42,-72 521.42,-78 521.42,-84 521.42,-84 521.42,-96 521.42,-96 521.42,-102 515.42,-108 509.42,-108"/>
<text text-anchor="middle" x="269.67" y="-93.25" font-family="sans" font-size="10.00">index_bam</text>
<text text-anchor="middle" x="269.67" y="-80.5" font-family="sans" font-size="10.00">input_name: HBA_220218_H1930001_CX46_BNST_3C_1_P3&#45;3&#45;O5&#45;K5.hisat3n_dna.all_reads.deduped</text>
</g>
<!-- 1&#45;&gt;15 -->
<g id="edge18" class="edge">
<title>1&#45;&gt;15</title>
<path fill="none" stroke="grey" stroke-width="2" d="M269.67,-143.34C269.67,-136.75 269.67,-129.08 269.67,-121.67"/>
<polygon fill="grey" stroke="grey" stroke-width="2" points="273.17,-121.93 269.67,-111.93 266.17,-121.93 273.17,-121.93"/>
</g>
<!-- 16 -->
<g id="node17" class="node">
<title>16</title>
<path fill="none" stroke="#d8ac56" stroke-width="2" d="M407.55,-36C407.55,-36 327.8,-36 327.8,-36 321.8,-36 315.8,-30 315.8,-24 315.8,-24 315.8,-12 315.8,-12 315.8,-6 321.8,0 327.8,0 327.8,0 407.55,0 407.55,0 413.55,0 419.55,-6 419.55,-12 419.55,-12 419.55,-24 419.55,-24 419.55,-30 413.55,-36 407.55,-36"/>
<text text-anchor="middle" x="367.67" y="-14.88" font-family="sans" font-size="10.00">unique_reads_allc</text>
</g>
<!-- 1&#45;&gt;16 -->
<g id="edge19" class="edge">
<title>1&#45;&gt;16</title>
<path fill="none" stroke="grey" stroke-width="2" d="M297.48,-159.64C358.57,-156.01 501.41,-143.8 530.67,-108 563.32,-68.05 491.48,-43.27 433.01,-30.31"/>
<polygon fill="grey" stroke="grey" stroke-width="2" points="433.87,-26.91 423.37,-28.27 432.43,-33.76 433.87,-26.91"/>
</g>
<!-- 2 -->
<g id="node3" class="node">
<title>2</title>
<path fill="none" stroke="#56a9d8" stroke-width="2" d="M308.42,-252C308.42,-252 230.92,-252 230.92,-252 224.92,-252 218.92,-246 218.92,-240 218.92,-240 218.92,-228 218.92,-228 218.92,-222 224.92,-216 230.92,-216 230.92,-216 308.42,-216 308.42,-216 314.42,-216 320.42,-222 320.42,-228 320.42,-228 320.42,-240 320.42,-240 320.42,-246 314.42,-252 308.42,-252"/>
<text text-anchor="middle" x="269.67" y="-230.88" font-family="sans" font-size="10.00">sort_bam_by_pos</text>
</g>
<!-- 2&#45;&gt;1 -->
<g id="edge3" class="edge">
<title>2&#45;&gt;1</title>
<path fill="none" stroke="grey" stroke-width="2" d="M269.67,-215.34C269.67,-208.75 269.67,-201.08 269.67,-193.67"/>
<polygon fill="grey" stroke="grey" stroke-width="2" points="273.17,-193.93 269.67,-183.93 266.17,-193.93 273.17,-193.93"/>
</g>
<!-- 3 -->
<g id="node4" class="node">
<title>3</title>
<path fill="none" stroke="#70d856" stroke-width="2" d="M392.92,-324C392.92,-324 282.42,-324 282.42,-324 276.42,-324 270.42,-318 270.42,-312 270.42,-312 270.42,-300 270.42,-300 270.42,-294 276.42,-288 282.42,-288 282.42,-288 392.92,-288 392.92,-288 398.92,-288 404.92,-294 404.92,-300 404.92,-300 404.92,-312 404.92,-312 404.92,-318 398.92,-324 392.92,-324"/>
<text text-anchor="middle" x="337.67" y="-302.88" font-family="sans" font-size="10.00">sort_all_reads_by_name</text>
</g>
<!-- 3&#45;&gt;2 -->
<g id="edge4" class="edge">
<title>3&#45;&gt;2</title>
<path fill="none" stroke="grey" stroke-width="2" d="M320.51,-287.34C313.08,-279.69 304.21,-270.56 295.98,-262.08"/>
<polygon fill="grey" stroke="grey" stroke-width="2" points="298.65,-259.81 289.17,-255.07 293.63,-264.68 298.65,-259.81"/>
</g>
<!-- 17 -->
<g id="node18" class="node">
<title>17</title>
<path fill="none" stroke="#8fd856" stroke-width="2" d="M460.92,-252C460.92,-252 350.42,-252 350.42,-252 344.42,-252 338.42,-246 338.42,-240 338.42,-240 338.42,-228 338.42,-228 338.42,-222 344.42,-216 350.42,-216 350.42,-216 460.92,-216 460.92,-216 466.92,-216 472.92,-222 472.92,-228 472.92,-228 472.92,-240 472.92,-240 472.92,-246 466.92,-252 460.92,-252"/>
<text text-anchor="middle" x="405.67" y="-230.88" font-family="sans" font-size="10.00">call_chromatin_contacts</text>
</g>
<!-- 3&#45;&gt;17 -->
<g id="edge21" class="edge">
<title>3&#45;&gt;17</title>
<path fill="none" stroke="grey" stroke-width="2" d="M354.83,-287.34C362.27,-279.69 371.13,-270.56 379.37,-262.08"/>
<polygon fill="grey" stroke="grey" stroke-width="2" points="381.72,-264.68 386.17,-255.07 376.7,-259.81 381.72,-264.68"/>
</g>
<!-- 4 -->
<g id="node5" class="node">
<title>4</title>
<path fill="none" stroke="#56c9d8" stroke-width="2" d="M408.67,-396C408.67,-396 266.67,-396 266.67,-396 260.67,-396 254.67,-390 254.67,-384 254.67,-384 254.67,-372 254.67,-372 254.67,-366 260.67,-360 266.67,-360 266.67,-360 408.67,-360 408.67,-360 414.67,-360 420.67,-366 420.67,-372 420.67,-372 420.67,-384 420.67,-384 420.67,-390 414.67,-396 408.67,-396"/>
<text text-anchor="middle" x="337.67" y="-374.88" font-family="sans" font-size="10.00">merge_original_and_split_bam</text>
</g>
<!-- 4&#45;&gt;3 -->
<g id="edge5" class="edge">
<title>4&#45;&gt;3</title>
<path fill="none" stroke="grey" stroke-width="2" d="M337.67,-359.34C337.67,-352.75 337.67,-345.08 337.67,-337.67"/>
<polygon fill="grey" stroke="grey" stroke-width="2" points="341.17,-337.93 337.67,-327.93 334.17,-337.93 341.17,-337.93"/>
</g>
<!-- 5 -->
<g id="node6" class="node">
<title>5</title>
<path fill="none" stroke="#d85656" stroke-width="2" d="M416.67,-756C416.67,-756 292.67,-756 292.67,-756 286.67,-756 280.67,-750 280.67,-744 280.67,-744 280.67,-732 280.67,-732 280.67,-726 286.67,-720 292.67,-720 292.67,-720 416.67,-720 416.67,-720 422.67,-720 428.67,-726 428.67,-732 428.67,-732 428.67,-744 428.67,-744 428.67,-750 422.67,-756 416.67,-756"/>
<text text-anchor="middle" x="354.67" y="-734.88" font-family="sans" font-size="10.00">separate_unmapped_reads</text>
</g>
<!-- 5&#45;&gt;4 -->
<g id="edge6" class="edge">
<title>5&#45;&gt;4</title>
<path fill="none" stroke="grey" stroke-width="2" d="M339.36,-719.07C319.03,-693.38 285.67,-643.79 285.67,-595 285.67,-595 285.67,-595 285.67,-521 285.67,-479.83 305.18,-435.83 320.3,-407.9"/>
<polygon fill="grey" stroke="grey" stroke-width="2" points="323.31,-409.69 325.16,-399.26 317.21,-406.26 323.31,-409.69"/>
</g>
<!-- 13 -->
<g id="node14" class="node">
<title>13</title>
<path fill="none" stroke="#5673d8" stroke-width="2" d="M474.8,-684C474.8,-684 372.55,-684 372.55,-684 366.55,-684 360.55,-678 360.55,-672 360.55,-672 360.55,-660 360.55,-660 360.55,-654 366.55,-648 372.55,-648 372.55,-648 474.8,-648 474.8,-648 480.8,-648 486.8,-654 486.8,-660 486.8,-660 486.8,-672 486.8,-672 486.8,-678 480.8,-684 474.8,-684"/>
<text text-anchor="middle" x="423.67" y="-662.88" font-family="sans" font-size="10.00">split_unmapped_reads</text>
</g>
<!-- 5&#45;&gt;13 -->
<g id="edge16" class="edge">
<title>5&#45;&gt;13</title>
<path fill="none" stroke="grey" stroke-width="2" d="M372.09,-719.34C379.63,-711.69 388.63,-702.56 396.98,-694.08"/>
<polygon fill="grey" stroke="grey" stroke-width="2" points="399.38,-696.64 403.9,-687.06 394.39,-691.72 399.38,-696.64"/>
</g>
<!-- 6 -->
<g id="node7" class="node">
<title>6</title>
<path fill="none" stroke="#56d892" stroke-width="2" d="M447.05,-828C447.05,-828 262.3,-828 262.3,-828 256.3,-828 250.3,-822 250.3,-816 250.3,-816 250.3,-804 250.3,-804 250.3,-798 256.3,-792 262.3,-792 262.3,-792 447.05,-792 447.05,-792 453.05,-792 459.05,-798 459.05,-804 459.05,-804 459.05,-816 459.05,-816 459.05,-822 453.05,-828 447.05,-828"/>
<text text-anchor="middle" x="354.67" y="-806.88" font-family="sans" font-size="10.00">hisat_3n_pair_end_mapping_dna_mode</text>
</g>
<!-- 6&#45;&gt;5 -->
<g id="edge8" class="edge">
<title>6&#45;&gt;5</title>
<path fill="none" stroke="grey" stroke-width="2" d="M354.67,-791.34C354.67,-784.75 354.67,-777.08 354.67,-769.67"/>
<polygon fill="grey" stroke="grey" stroke-width="2" points="358.17,-769.93 354.67,-759.93 351.17,-769.93 358.17,-769.93"/>
</g>
<!-- 7 -->
<g id="node8" class="node">
<title>7</title>
<path fill="none" stroke="#5692d8" stroke-width="2" d="M369.67,-900C369.67,-900 339.67,-900 339.67,-900 333.67,-900 327.67,-894 327.67,-888 327.67,-888 327.67,-876 327.67,-876 327.67,-870 333.67,-864 339.67,-864 339.67,-864 369.67,-864 369.67,-864 375.67,-864 381.67,-870 381.67,-876 381.67,-876 381.67,-888 381.67,-888 381.67,-894 375.67,-900 369.67,-900"/>
<text text-anchor="middle" x="354.67" y="-878.88" font-family="sans" font-size="10.00">trim</text>
</g>
<!-- 7&#45;&gt;6 -->
<g id="edge9" class="edge">
<title>7&#45;&gt;6</title>
<path fill="none" stroke="grey" stroke-width="2" d="M354.67,-863.34C354.67,-856.75 354.67,-849.08 354.67,-841.67"/>
<polygon fill="grey" stroke="grey" stroke-width="2" points="358.17,-841.93 354.67,-831.93 351.17,-841.93 358.17,-841.93"/>
</g>
<!-- 8 -->
<g id="node9" class="node">
<title>8</title>
<path fill="none" stroke="#afd856" stroke-width="2" d="M334.05,-982.25C334.05,-982.25 35.3,-982.25 35.3,-982.25 29.3,-982.25 23.3,-976.25 23.3,-970.25 23.3,-970.25 23.3,-948 23.3,-948 23.3,-942 29.3,-936 35.3,-936 35.3,-936 334.05,-936 334.05,-936 340.05,-936 346.05,-942 346.05,-948 346.05,-948 346.05,-970.25 346.05,-970.25 346.05,-976.25 340.05,-982.25 334.05,-982.25"/>
<text text-anchor="middle" x="184.67" y="-968.75" font-family="sans" font-size="10.00">sort_fq</text>
<text text-anchor="middle" x="184.67" y="-956" font-family="sans" font-size="10.00">cell_id: HBA_220218_H1930001_CX46_BNST_3C_1_P3&#45;3&#45;O5&#45;K5</text>
<text text-anchor="middle" x="184.67" y="-943.25" font-family="sans" font-size="10.00">read_type: R1</text>
</g>
<!-- 8&#45;&gt;7 -->
<g id="edge10" class="edge">
<title>8&#45;&gt;7</title>
<path fill="none" stroke="grey" stroke-width="2" d="M236.6,-935.18C261.77,-924.06 291.51,-910.91 314.85,-900.6"/>
<polygon fill="grey" stroke="grey" stroke-width="2" points="316.24,-903.81 323.98,-896.57 313.41,-897.41 316.24,-903.81"/>
</g>
<!-- 9 -->
<g id="node10" class="node">
<title>9</title>
<path fill="none" stroke="#afd856" stroke-width="2" d="M675.05,-982.25C675.05,-982.25 376.3,-982.25 376.3,-982.25 370.3,-982.25 364.3,-976.25 364.3,-970.25 364.3,-970.25 364.3,-948 364.3,-948 364.3,-942 370.3,-936 376.3,-936 376.3,-936 675.05,-936 675.05,-936 681.05,-936 687.05,-942 687.05,-948 687.05,-948 687.05,-970.25 687.05,-970.25 687.05,-976.25 681.05,-982.25 675.05,-982.25"/>
<text text-anchor="middle" x="525.67" y="-968.75" font-family="sans" font-size="10.00">sort_fq</text>
<text text-anchor="middle" x="525.67" y="-956" font-family="sans" font-size="10.00">cell_id: HBA_220218_H1930001_CX46_BNST_3C_1_P3&#45;3&#45;O5&#45;K5</text>
<text text-anchor="middle" x="525.67" y="-943.25" font-family="sans" font-size="10.00">read_type: R2</text>
</g>
<!-- 9&#45;&gt;7 -->
<g id="edge11" class="edge">
<title>9&#45;&gt;7</title>
<path fill="none" stroke="grey" stroke-width="2" d="M473.44,-935.18C447.85,-923.93 417.54,-910.62 393.95,-900.25"/>
<polygon fill="grey" stroke="grey" stroke-width="2" points="395.62,-897.17 385.06,-896.35 392.8,-903.57 395.62,-897.17"/>
</g>
<!-- 10 -->
<g id="node11" class="node">
<title>10</title>
<path fill="none" stroke="#d88d56" stroke-width="2" d="M470.92,-468C470.92,-468 342.42,-468 342.42,-468 336.42,-468 330.42,-462 330.42,-456 330.42,-456 330.42,-444 330.42,-444 330.42,-438 336.42,-432 342.42,-432 342.42,-432 470.92,-432 470.92,-432 476.92,-432 482.92,-438 482.92,-444 482.92,-444 482.92,-456 482.92,-456 482.92,-462 476.92,-468 470.92,-468"/>
<text text-anchor="middle" x="406.67" y="-446.88" font-family="sans" font-size="10.00">remove_overlap_read_parts</text>
</g>
<!-- 10&#45;&gt;4 -->
<g id="edge7" class="edge">
<title>10&#45;&gt;4</title>
<path fill="none" stroke="grey" stroke-width="2" d="M389.26,-431.34C381.72,-423.69 372.72,-414.56 364.37,-406.08"/>
<polygon fill="grey" stroke="grey" stroke-width="2" points="366.96,-403.72 357.45,-399.06 361.97,-408.64 366.96,-403.72"/>
</g>
<!-- 11 -->
<g id="node12" class="node">
<title>11</title>
<path fill="none" stroke="#56d873" stroke-width="2" d="M513.42,-540C513.42,-540 333.92,-540 333.92,-540 327.92,-540 321.92,-534 321.92,-528 321.92,-528 321.92,-516 321.92,-516 321.92,-510 327.92,-504 333.92,-504 333.92,-504 513.42,-504 513.42,-504 519.42,-504 525.42,-510 525.42,-516 525.42,-516 525.42,-528 525.42,-528 525.42,-534 519.42,-540 513.42,-540"/>
<text text-anchor="middle" x="423.67" y="-518.88" font-family="sans" font-size="10.00">merge_and_sort_split_reads_by_name</text>
</g>
<!-- 11&#45;&gt;10 -->
<g id="edge12" class="edge">
<title>11&#45;&gt;10</title>
<path fill="none" stroke="grey" stroke-width="2" d="M419.38,-503.34C417.77,-496.67 415.88,-488.89 414.05,-481.39"/>
<polygon fill="grey" stroke="grey" stroke-width="2" points="417.5,-480.73 411.74,-471.84 410.69,-482.39 417.5,-480.73"/>
</g>
<!-- 12 -->
<g id="node13" class="node">
<title>12</title>
<path fill="none" stroke="#d8cb56" stroke-width="2" d="M521.3,-612C521.3,-612 326.05,-612 326.05,-612 320.05,-612 314.05,-606 314.05,-600 314.05,-600 314.05,-588 314.05,-588 314.05,-582 320.05,-576 326.05,-576 326.05,-576 521.3,-576 521.3,-576 527.3,-576 533.3,-582 533.3,-588 533.3,-588 533.3,-600 533.3,-600 533.3,-606 527.3,-612 521.3,-612"/>
<text text-anchor="middle" x="423.67" y="-597.25" font-family="sans" font-size="10.00">hisat_3n_single_end_mapping_dna_mode</text>
<text text-anchor="middle" x="423.67" y="-584.5" font-family="sans" font-size="10.00">read_type: R1</text>
</g>
<!-- 12&#45;&gt;11 -->
<g id="edge13" class="edge">
<title>12&#45;&gt;11</title>
<path fill="none" stroke="grey" stroke-width="2" d="M423.67,-575.34C423.67,-568.75 423.67,-561.08 423.67,-553.67"/>
<polygon fill="grey" stroke="grey" stroke-width="2" points="427.17,-553.93 423.67,-543.93 420.17,-553.93 427.17,-553.93"/>
</g>
<!-- 13&#45;&gt;12 -->
<g id="edge15" class="edge">
<title>13&#45;&gt;12</title>
<path fill="none" stroke="grey" stroke-width="2" d="M423.67,-647.34C423.67,-640.75 423.67,-633.08 423.67,-625.67"/>
<polygon fill="grey" stroke="grey" stroke-width="2" points="427.17,-625.93 423.67,-615.93 420.17,-625.93 427.17,-625.93"/>
</g>
<!-- 14 -->
<g id="node15" class="node">
<title>14</title>
<path fill="none" stroke="#d8cb56" stroke-width="2" d="M758.3,-612C758.3,-612 563.05,-612 563.05,-612 557.05,-612 551.05,-606 551.05,-600 551.05,-600 551.05,-588 551.05,-588 551.05,-582 557.05,-576 563.05,-576 563.05,-576 758.3,-576 758.3,-576 764.3,-576 770.3,-582 770.3,-588 770.3,-588 770.3,-600 770.3,-600 770.3,-606 764.3,-612 758.3,-612"/>
<text text-anchor="middle" x="660.67" y="-597.25" font-family="sans" font-size="10.00">hisat_3n_single_end_mapping_dna_mode</text>
<text text-anchor="middle" x="660.67" y="-584.5" font-family="sans" font-size="10.00">read_type: R2</text>
</g>
<!-- 13&#45;&gt;14 -->
<g id="edge17" class="edge">
<title>13&#45;&gt;14</title>
<path fill="none" stroke="grey" stroke-width="2" d="M484.4,-647.06C515.9,-637.76 554.6,-626.33 587.72,-616.55"/>
<polygon fill="grey" stroke="grey" stroke-width="2" points="588.6,-619.94 597.2,-613.75 586.62,-613.22 588.6,-619.94"/>
</g>
<!-- 14&#45;&gt;11 -->
<g id="edge14" class="edge">
<title>14&#45;&gt;11</title>
<path fill="none" stroke="grey" stroke-width="2" d="M599.95,-575.06C568.45,-565.76 529.74,-554.33 496.63,-544.55"/>
<polygon fill="grey" stroke="grey" stroke-width="2" points="497.73,-541.22 487.14,-541.75 495.74,-547.94 497.73,-541.22"/>
</g>
<!-- 15&#45;&gt;0 -->
<g id="edge2" class="edge">
<title>15&#45;&gt;0</title>
<path fill="none" stroke="grey" stroke-width="2" d="M244.69,-71.15C233.29,-63.01 219.58,-53.22 207.13,-44.33"/>
<polygon fill="grey" stroke="grey" stroke-width="2" points="209.25,-41.54 199.07,-38.57 205.18,-47.23 209.25,-41.54"/>
</g>
<!-- 15&#45;&gt;16 -->
<g id="edge20" class="edge">
<title>15&#45;&gt;16</title>
<path fill="none" stroke="grey" stroke-width="2" d="M294.66,-71.15C306.06,-63.01 319.77,-53.22 332.22,-44.33"/>
<polygon fill="grey" stroke="grey" stroke-width="2" points="334.17,-47.23 340.27,-38.57 330.1,-41.54 334.17,-47.23"/>
</g>
</g>
</svg>
